/* XPM */
static char *collectible_clean_1[] = {
/* columns rows colors chars-per-pixel */
"50 41 237 2 ",
"   c None",
".  c #FE3B00",
"X  c #FF3B00",
"o  c #FE3C00",
"O  c #FF3C00",
"+  c #FE3D00",
"@  c #FF3D00",
"#  c #FF3C01",
"$  c #FE3E00",
"%  c #FF3E00",
"&  c #FE3F00",
"*  c #FF3F00",
"=  c #FF3D03",
"-  c #FF3F06",
";  c #FC4100",
":  c #FE4000",
">  c #FF4000",
",  c #FC4200",
"<  c #FC4300",
"1  c #FE4200",
"2  c #FF4200",
"3  c #FE4300",
"4  c #FF4300",
"5  c #FC4500",
"6  c #FF4400",
"7  c #FC4600",
"8  c #FF4600",
"9  c #FF4700",
"0  c #FF4403",
"q  c #FD4800",
"w  c #FD4900",
"e  c #FF4800",
"r  c #FE4900",
"t  c #FD4A00",
"y  c #FD4B00",
"u  c #FF4B00",
"i  c #FD4D00",
"p  c #FF4C00",
"a  c #FF4D00",
"s  c #FF4E00",
"d  c #FF4F00",
"f  c #FF4F09",
"g  c #FF4E0B",
"h  c #FF5000",
"j  c #FF5100",
"k  c #FF5200",
"l  c #FF5300",
"z  c #FF5400",
"x  c #FE5500",
"c  c #FD5700",
"v  c #FF5600",
"b  c #FF5700",
"n  c #FF5800",
"m  c #FF5A00",
"M  c #FF5B00",
"N  c #FF5E00",
"B  c #FE5F00",
"V  c #FF5F00",
"C  c #FF5F15",
"Z  c #FF5F1A",
"A  c #FF6000",
"S  c #FF6100",
"D  c #FF6200",
"F  c #FF6300",
"G  c #FC6400",
"H  c #FD6400",
"J  c #FC6500",
"K  c #FD6500",
"L  c #FF6400",
"P  c #FE6500",
"I  c #FF6500",
"U  c #FE6600",
"Y  c #FF6600",
"T  c #FF6700",
"R  c #FF6701",
"E  c #FF6800",
"W  c #FF6900",
"Q  c #FF6A00",
"!  c #FF6B00",
"~  c #FF6803",
"^  c #FF6C00",
"/  c #FF6D00",
"(  c #FF6F00",
")  c #FF6A06",
"_  c #FF6B08",
"`  c #FF6B09",
"'  c #FF6E0D",
"]  c #FF7000",
"[  c #FF7100",
"{  c #FF7200",
"}  c #FF7300",
"|  c #FF7400",
" . c #FF7500",
".. c #FF7600",
"X. c #FF7700",
"o. c #FF7A00",
"O. c #FF7C00",
"+. c #FF7D00",
"@. c #FF7E00",
"#. c #FF7F00",
"$. c #FF7010",
"%. c #FF7113",
"&. c #FF7316",
"*. c #FF771D",
"=. c #FF5A28",
"-. c #FF5A29",
";. c #FF7427",
":. c #FF7920",
">. c #FF7B23",
",. c #FF7C24",
"<. c #FD772B",
"1. c #FF7E28",
"2. c #FF7F29",
"3. c #FF7F2A",
"4. c #FF7530",
"5. c #FF6E42",
"6. c #FF7C54",
"7. c #FF8000",
"8. c #FF8400",
"9. c #FF8600",
"0. c #FF8800",
"q. c #FF8B00",
"w. c #FF8D00",
"e. c #FF8F00",
"r. c #FF9000",
"t. c #FF9100",
"y. c #FF9200",
"u. c #FF9500",
"i. c #FF9600",
"p. c #FF9700",
"a. c #FF9800",
"s. c #FF9900",
"d. c #FF9A00",
"f. c #FF9B00",
"g. c #FF9C00",
"h. c #FF9E00",
"j. c #FF9F00",
"k. c #FFA100",
"l. c #FFA200",
"z. c #FFA300",
"x. c orange",
"c. c #FFA600",
"v. c #FFA900",
"b. c #FFAA00",
"n. c #FFAB00",
"m. c #FFAE00",
"M. c #FFAF00",
"N. c #FFB100",
"B. c #FFB400",
"V. c #FFB500",
"C. c #FFB600",
"Z. c #FFB800",
"A. c #FFB900",
"S. c #FFBB00",
"D. c #FFBD00",
"F. c #FFBE00",
"G. c #FFBF00",
"H. c #FF812D",
"J. c #FF8533",
"K. c #FF893A",
"L. c #FF8A3C",
"P. c #FFC000",
"I. c #FFC100",
"U. c #FFC300",
"Y. c #FFC500",
"T. c #FFC700",
"R. c #FFC800",
"E. c #FFC900",
"W. c #FFCA00",
"Q. c #FFCB00",
"!. c #FFCC00",
"~. c #FF8D41",
"^. c #FF944D",
"/. c #FF9755",
"(. c #FF9F5E",
"). c #FFA757",
"_. c #FFA35C",
"`. c #FFA05E",
"'. c #FF8661",
"]. c #FF9373",
"[. c #FF9A7C",
"{. c #FF9B7D",
"}. c #FFA162",
"|. c #FFA362",
" X c #FFA365",
".X c #FFA867",
"XX c #FFA66B",
"oX c #FFA86D",
"OX c #FFB362",
"+X c #FFAA71",
"@X c #FFAE77",
"#X c #FFB272",
"$X c #FFC373",
"%X c #FFC979",
"&X c #FFCB7E",
"*X c #FF9F82",
"=X c #FFA387",
"-X c #FFA78C",
";X c #FFB584",
":X c #FFB786",
">X c #FFBF82",
",X c #FFBF94",
"<X c #FFC387",
"1X c #FFCD82",
"2X c #FCCE85",
"3X c #FFD189",
"4X c #FDD18C",
"5X c #FFD38F",
"6X c #FFC299",
"7X c #FFC49D",
"8X c #FFD696",
"9X c #FFD298",
"0X c #FFCDAB",
"qX c #FFCEAC",
"wX c #FFCFAE",
"eX c #FDDAA1",
"rX c #FFDBA1",
"tX c #FDDAA2",
"yX c #FFDCA4",
"uX c #FFD6BA",
"iX c #FFDAC1",
"pX c #FFDEC7",
"aX c #FFE3CF",
"sX c #FFE7D7",
"dX c #FFE1D8",
"fX c #FFEADC",
"gX c #FFE8E1",
"hX c #FFEDE0",
"jX c #FFF2E9",
"kX c #FFF5ED",
"lX c #FFFCF9",
"zX c #FFFCFB",
"xX c #FFFDFB",
"cX c #FFFEFC",
"vX c #FFFEFD",
"bX c #FFFFFE",
"nX c white",
/* pixels */
"                                        K K K K K K K K K                                           ",
"                                  K K ` :.3.&.K K K K K K K K K K                                   ",
"                            K K ,.:XaXnXnXnXnXhX+XK K +.d.( K K K K K                               ",
"                        K K %.7XnXnXnXnXnXnXnXnXnX@XK G.!.d.K K K K K K K                           ",
"                      K K :.fXnXnXnXnXnXnXnXnXnXnX0XK h.I.+.K K K K K K K K K                       ",
"                  K K K K pXnXnXnXnXnXnXnXnXnXnXnX(.K K K K K K K K K K K K K V                     ",
"                K K K K *.nXnXnXnXnXnXnXnXnXnXnX6XK K K K K K K K K K K K K K K b                   ",
"              K K J.:X^.` jXnXnXnXnXnXnXnXnXkX XK K K K K K K K K K K K K K K K K e e               ",
"            K ) ,XnXnXwXK 3.uXnXnXnXnXxXiXXX' K K K K K K K K K K +.h.M.v.t.~ K K F O               ",
"            ~ wXnXnXxXL.K K K %.J.K.3.` K K K K K K K K K K K K l.!.!.!.!.!.I.o.K K h O             ",
"          K oXnXnXxX}.K K K K K K K K K K K K K K K K K K K K h.!.!.!.!.!.!.!.I.( K K O >           ",
"        K K wXnXsX~.K K K K K K K K K K K K K K K K K K K K { Q.!.!.!.!.!.!.!.!.h.K K s X e         ",
"        K K %.H.K K K K K K K K K K K K K { c.( K K K K K K w.!.!.!.!.!.!.!.!.!.G.K K m X O         ",
"      K K K K K K X.9.( K K K K K K K K K 7.Q.o.K K K K K K p.!.!.!.!.!.!.!.!.!.Q.K K K X X 5       ",
"      K K K K K d.!.!.T.7.K K K K K K K K K K K K K K K K K w.!.!.!.!.!.!.!.!.!.G.K K K O X O       ",
"    K K K K K { Q.!.!.!.A.K K K K K K K K K K K K K K K K K { Q.!.!.!.!.!.!.!.!.h.K K K O X X e     ",
"    K K K K K +.!.!.!.!.T.K K K K K K K K K K K K K K K K K K h.!.!.!.!.!.!.!.I.{ K K F X X X >     ",
"  b K K K K K ~ I.!.!.!.c.K K K K K K K K K K K K K K K K K K K l.!.!.!.!.!.I.o.K K K m N.X.X X     ",
"  > F K K K K K X.M.G.l.~ K K K ( d.V.A.v.+.K K K K K K K K K K K +.l.M.v.t.~ K K K K e V.X.X X e   ",
"  O s K K K K K K K K K K K K { G.!.!.!.!.!.p.K K K K K K K K K K K K K K K K K K K h X X X X X 6   ",
"  X X m K K K K K K K K K K K N.!.!.!.!.!.!.!.+.K K K K K K K K K K K K K K K K K b X X X X X X >   ",
"s X O K X.K K K K K K K K K X.!.!.!.!.!.!.!.!.c.K K K K K K K K K K K K K K K K h X X X X X X X O   ",
"e X h.!.!.w.K K K K K K K K 9.!.!.!.!.!.!.!.!.V.K K K K K K K K K K K K K K F 6 X X X X X X X X X   ",
"e > !.!.!.A.> b K K K K K K +.!.!.!.!.!.!.!.!.M.K K K K K K K K K K K K F s O X X X X X X O -.- X   ",
"e X V.!.!.h.X X O s V K K K ~ I.!.!.!.!.!.!.!.t.K K K K K K K K K K b e X X X X X X X X 6.gXnX{.X   ",
"  X e 0.9.> X X X X X > s b V 0.!.!.!.!.!.!.A.~ K K K K K F m h 6 O F p.t.b X X X X X *XnXnXnX5.O   ",
"  > X X X X X X X X X X X X X O ( G.!.!.Q.l.m h h s e 6 O X X X X ~ !.!.!.Q.m X X X '.nXnXnX-XX e   ",
"    O X X X X X X X X X X X X X X O b V e X X X O O X X X X X X X v.!.!.!.!.p.X X X dXnXxX{.O >     ",
"      > X X X X X X X X X X X X X X X X X X X X X X X X X X X X X N.!.!.!.!.d.X X X ].=X-.X 6       ",
"        e O X X X X X X X X X X X X X X X X X X X X X X X X X X X +.!.!.!.!.K X X X X X >           ",
"            e > X X X X X X X X X X X X X X X X X X X X X X X X X O +.V.M.{ X X X O 6               ",
"                  e 5 O X X X X X X X X X X X X X X X X X X X X X X X X X X O 6 e                   ",
"                        <X/.4.Z g 6 O X X X X X X X X X X X X O 6 g C ;.<.                          ",
"                        yXyXyXyXyXyXyX9X>X#X.X}.`.`.}.`.).OX$X%X%X%X%X%X                            ",
"                        yXyXyXyXyXyXyXyXyXyXyXyXyXyXyX4X%X%X%X%X%X%X%X%X                            ",
"                        yXyXyXyXyXyXyXyXyXyXyXyXyXyXyX3X%X%X%X%X%X%X%X%X                            ",
"                        yXyXyXyXyXyXyXyXyXyXyXyXyXyXyX&X%X%X%X%X%X%X%X%X                            ",
"                        yXyXyXyXyXyXyXyXyXyXyXyXyXyX8X%X%X%X%X%X%X%X%X%X                            ",
"                        yXyXyXyXyXyXyXyXyXyXyXyXyXeX&X%X%X%X%X%X%X%X%X%X                            ",
"                        yXyXyXyXyXyXyXyXyXyXyXyXeX1X%X%X%X%X%X%X%X%X%X%X                            ",
"                        eXeXeXeXeXeXeXeXeXeXeXeX4X2X2X2X2X2X2X2X2X2X2X2X                            "
};
