/* XPM */
static char *result[] = {
/* columns rows colors chars-per-pixel */
"82 80 165 2 ",
"   c #040402",
".  c #0C0102",
"X  c #020A02",
"o  c #0B0B03",
"O  c #020109",
"+  c #0C040B",
"@  c #010B0C",
"#  c #090909",
"$  c #120204",
"%  c #190304",
"&  c #140C04",
"*  c #1B0904",
"=  c #11030D",
"-  c #110B0F",
";  c #03100F",
":  c #1D150D",
">  c #1B180F",
",  c #040312",
"<  c #0D0413",
"1  c #030B12",
"2  c #0C0D13",
"3  c #121315",
"4  c #1C1511",
"5  c #221406",
"6  c #21140E",
"7  c #2B1509",
"8  c #221412",
"9  c #472516",
"0  c #472915",
"q  c #4B2C15",
"w  c #442D1B",
"e  c #4A2E1A",
"r  c #542C11",
"t  c #423017",
"y  c #573116",
"u  c #642E1A",
"i  c #6B3019",
"p  c #77351A",
"a  c #6B3D21",
"s  c #713F23",
"d  c #75401B",
"f  c #6D4226",
"g  c #754323",
"h  c #7A4228",
"j  c #8B3F20",
"k  c #854722",
"l  c #8D4E24",
"z  c #86552C",
"x  c #8C552B",
"c  c #8C592C",
"v  c #945327",
"b  c #9B5426",
"n  c #935529",
"m  c #91582F",
"M  c #915732",
"N  c #955F36",
"B  c #A74722",
"V  c #A94723",
"C  c #A74823",
"Z  c #AB4924",
"A  c #BE4D22",
"S  c #A45928",
"D  c #BF5322",
"F  c #AF6732",
"G  c #AE6B35",
"H  c #AD6D3B",
"J  c #B16732",
"K  c #B56D36",
"L  c #BA6E35",
"P  c #B56E38",
"I  c #BA6E39",
"U  c #AE703C",
"Y  c #B47136",
"T  c #BD7435",
"R  c #B4713A",
"E  c #BC713A",
"W  c #B9793F",
"Q  c #C44F26",
"!  c #C84E26",
"~  c #C54F28",
"^  c #C94E29",
"/  c #C55126",
"(  c #C95127",
")  c #C75827",
"_  c #C75528",
"`  c #C85129",
"'  c #CE5D2B",
"]  c #CE612C",
"[  c #D3662E",
"{  c #D56A2F",
"}  c #D8682F",
"|  c #C46834",
" . c #C36F39",
".. c #CA6F38",
"X. c #D66A30",
"o. c #DA6A32",
"O. c #C57336",
"+. c #CE7136",
"@. c #C2733A",
"#. c #C07B3C",
"$. c #D37232",
"%. c #DD7235",
"&. c #DE7B37",
"*. c #DC7C3A",
"=. c #E07637",
"-. c #E47A36",
";. c #ED7D37",
":. c #E17738",
">. c #E47A3A",
",. c #E87B3C",
"<. c #F27F37",
"1. c #F17F39",
"2. c #B37342",
"3. c #B87540",
"4. c #BB7B48",
"5. c #CE7B46",
"6. c #E47F44",
"7. c #E87E40",
"8. c #E5823D",
"9. c #EC833E",
"0. c #F78337",
"q. c #F3833A",
"w. c #FA863C",
"e. c #F5883E",
"r. c #FB883D",
"t. c #E78243",
"y. c #EB8142",
"u. c #E98946",
"i. c #E2854D",
"p. c #E9884B",
"a. c #F68543",
"s. c #FA8743",
"d. c #F58B45",
"f. c #FA8A44",
"g. c #F6864A",
"h. c #FB8649",
"j. c #F68B49",
"k. c #FA8C49",
"l. c #ED9443",
"z. c #EE9C45",
"x. c #F69447",
"c. c #FA9646",
"v. c #F69945",
"b. c #FC9946",
"n. c #F5954A",
"m. c #FA9749",
"M. c #F5984A",
"N. c #FB984B",
"B. c #FA9751",
"V. c #F59A54",
"C. c #FB9A51",
"Z. c #FB9B5E",
"A. c #FAAB67",
"S. c #F6AD6C",
"D. c #FCAC6C",
"F. c #F5B36C",
"G. c #FDB66F",
"H. c #FAAF75",
"J. c #F7AF7B",
"K. c #FDAE7A",
"L. c #F6B274",
"P. c #FBB273",
"I. c #F2B870",
"U. c #F5B47B",
"Y. c #FCB178",
/* pixels */
"8 &.G.H.H.Y.Y.P.P.P.P.P.P.P.P.Y.P.P.P.Y.P.P.P.P.P.P.P.Y.P.P.P.P.Y.P.P.P.P.P.Y.P.P.P.P.Y.P.P.P.P.P.P.Y.P.P.P.P.Y.P.P.P.P.P.P.Y.P.Y.P.P.P.Y.P.P.P.Y.P.P.P.Y.P.P.P.D.y.",
"6 -.w.N.D.U.U.F.L.P.L.L.P.L.L.P.L.L.P.L.L.P.L.L.P.L.L.P.L.L.P.L.L.L.L.L.P.L.L.P.L.L.P.L.L.P.L.L.P.L.L.P.L.L.P.L.L.P.L.L.P.L.L.P.L.P.P.L.L.P.L.P.L.L.L.P.U.L.D.C.k.t.",
"8 -.w.s.C.D.Y.Y.Y.K.Y.K.K.Y.Y.Y.Y.Y.Y.P.Y.Y.Y.K.Y.K.Y.K.P.K.Y.P.Y.Y.Y.K.Y.K.K.Y.K.Y.Y.Y.Y.Y.Y.K.Y.Y.H.Y.Y.K.Y.Y.Y.Y.Y.K.Y.Y.P.K.Y.Y.Y.Y.P.Y.Y.Y.Y.K.Y.Y.Y.H.Z.h.s.y.",
"4 -.w.w.x.C.D.L.P.F.P.G.G.P.P.F.G.P.P.P.F.P.P.G.F.G.P.F.P.P.P.L.F.P.P.G.F.G.P.F.P.F.P.P.F.P.P.G.P.P.F.P.P.F.P.L.F.P.P.G.P.P.F.P.F.P.P.P.P.P.F.P.G.P.P.F.D.Z.h.s.s.,.",
"6 -.w.0.w.f.V.D.F.K.U.L.K.F.K.K.S.P.I.U.L.Y.P.Y.Y.P.P.P.P.P.Y.Y.Y.Y.P.P.Y.P.P.J.P.Y.L.Y.Y.P.Y.P.Y.H.Y.Y.P.P.P.Y.Y.P.Y.P.Y.P.P.U.I.P.S.Y.Y.U.D.K.J.J.Y.P.V.k.s.s.s.7.",
": -.w.w.w.w.d.B.G.K.F.F.Y.F.F.Y.Y.P.P.P.D.P.L.P.P.P.P.U.L.P.P.L.L.L.P.L.P.P.P.P.P.L.P.L.L.P.L.P.P.P.L.L.P.P.P.L.L.P.L.L.P.P.D.Y.F.P.Y.Y.F.P.A.P.P.H.P.D.j.d.s.s.f.y.",
": :.w.w.r.w.w.w.D.K.Y.P.K.L.F.P.U.Y.Y.U.L.J.P.H.H.P.J.H.J.P.H.P.H.P.H.H.H.H.P.J.H.H.H.P.H.J.H.H.P.H.L.H.L.Y.H.H.H.H.H.H.H.H.L.Y.Y.Y.U.P.F.Y.H.D.L.U.D.Z.g.s.s.s.h.8.",
"B <.w.e.w.w.r.w.n * O . + & - % * R M.b.m.n.n.n.n.M.n.M.n.M.n.M.M.M.M.M.M.M.M.n.M.M.M.M.n.M.n.m.n.M.n.M.n.M.M.M.M.M.M.M.M.M.m.m.M.R * % - & . $ + % h p.s.s.s.s.s.s.",
"B <.w.w.e.e.f.w.v . @ 3 1 . 1 + + #.N.N.N.c.N.c.c.c.c.m.c.N.c.b.m.c.c.c.c.c.c.N.c.c.c.c.c.c.c.N.c.c.c.N.c.N.m.m.c.b.N.c.c.c.m.N.N.#.+ - 1 X 2 3 2 . d 9.s.f.f.f.s.h.",
"B 9.w.w.w.w.w.w.b . O $ O $ X & = @.x.N.B.N.N.N.N.N.m.m.N.N.N.N.m.N.N.N.N.N.N.N.m.m.N.N.N.N.N.N.N.m.N.N.N.b.b.N.N.N.m.N.N.N.B.k.m.@.+ &   $ . . + . g s.f.s.s.s.s.s.",
"Z q.w.w.w.w.w.w.m @ X % o o X . < O.N.c.m.m.m.m.m.m.m.m.m.N.m.m.m.m.N.m.M.m.m.m.m.m.m.N.m.M.m.n.N.m.m.m.N.m.m.m.m.m.m.m.m.m.N.m.N.O.< . X . o o @   f d.f.s.s.s.f.a.",
"B <.w.w.w.w.w.w.l # . @ @ @ + & & O.C.m.n.m.m.m.m.N.m.m.m.m.m.m.m.m.N.m.m.N.N.m.m.N.m.m.m.N.m.N.m.N.m.m.m.m.m.m.n.m.m.m.m.N.n.N.N.O.& o + o @ . X   g a.s.s.s.s.s.s.",
"V q.w.w.w.w.w.w.v   . + + + , X + E C.m.m.m.m.m.N.N.m.m.m.m.m.m.N.N.m.m.m.N.m.m.N.N.m.m.m.N.m.m.N.N.N.N.m.m.m.m.m.N.N.m.m.c.m.c.C.#.+ X , . . . O . h s.s.s.s.s.s.s.",
"V 1.w.w.w.w.w.w.b   o X o o X 1 < E b.m.c.b.m.m.m.m.N.N.m.m.m.m.m.m.m.m.m.m.m.m.m.m.m.m.m.m.m.m.m.m.m.m.m.m.m.N.N.m.m.m.m.m.c.n.N.@.+ 1 X + . o ; o d f.s.s.s.s.s.h.",
"V <.w.w.w.w.w.w.l o   O < # X O . 3.m.m.N.c.x.m.c.d.k.k.k.m.n.k.k.k.m.k.m.k.n.k.k.k.m.k.m.k.m.k.k.c.k.k.k.k.m.k.k.d.c.m.m.m.N.m.N.R . O X O $ O @ . a p.s.s.s.s.s.s.",
"V q.w.e.w.w.w.w.$.z c z n v c M c u.c.m.c.N.m.m.m.{ o.} [ [ [ [ [ [ [ [ [ [ [ [ [ [ [ [ [ [ [ [ [ [ [ [ [ [ [ } { { 9.m.N.c.m.m.m.u.c M n z n x z m | h.s.s.s.s.s.a.",
"B 1.w.w.w.w.w.w.r.V.N.M.N.b.c.N.c.N.r.N.M.m.m.b.N./ A Q Q A Q Q Q Q Q Q Q Q Q Q Q Q Q Q Q Q Q Q Q Q Q Q Q Q Q Q A / :.x.b.m.n.N.c.c.m.N.c.m.N.N.V.N.c.w.s.f.s.s.s.s.",
"V q.w.w.w.w.w.w.r.N.c.m.N.c.B.m.z.N.n.N.N.M.m.N.N.D / ^ ~ ~ ~ Q Q ~ Q ^ Q Q ~ Q ~ Q Q ~ Q ~ Q ~ Q Q ~ Q ~ ~ Q ` Q D >.m.b.m.N.m.M.C.z.c.N.b.N.m.m.b.k.s.s.s.s.s.s.a.",
"V 1.w.0.w.w.w.w.e.c.m.x.b.m.m.m.m.m.m.m.m.N.m.m.m./ ~ Q Q Q Q Q Q Q / ~ ~ ~ ~ ~ ~ ~ ~ ~ ~ ~ ~ / / Q Q A Q Q Q Q Q Q >.c.m.N.m.m.m.m.m.m.m.M.m.m.m.m.k.w.s.s.s.s.s.a.",
"B 1.w.w.w.w.w.w.f.m.m.m.b.N.m.m.m.m.m.m.m.b.n.N.m./ ~ Q Q Q Q ^ / Q Q ~ ~ ~ / ~ ~ Q ~ ~ ~ ~ ~ Q Q ! ` ~ ! Q Q Q Q Q >.m.m.m.m.m.m.m.m.m.m.N.m.m.m.m.k.f.s.s.s.w.s.s.",
"B <.w.w.r.e.w.r.e.c.m.m.m.m.b.b.m.m.m.m.m.N.N.N.m./ Q Q ! ~ Q Q ~ Q Q Q ! Q ! Q Q Q Q ( Q ! / ! Q Q Q Q Q ~ ! Q Q Q ,.c.c.m.m.m.m.m.m.m.m.m.m.N.c.m.f.f.s.s.s.s.s.a.",
"V q.w.r.w.w.r.r.f.m.m.m.m.N.b.v.m.m.m.m.m.b.n.N.m./ Q / Q Q ~ Q Q ~ ! Q Q Q Q Q Q Q Q Q Q ~ Q Q ^ ~ Q Q Q ~ Q Q Q Q ,.n.m.N.c.N.N.b.m.m.m.M.m.m.m.m.k.s.f.s.s.s.s.h.",
"Z <.w.w.w.w.r.r.w.m.m.c.N.m.m.m.m.m.m.m.m.N.n.N.m./ Q Q Q Q Q ~ / Q Q Q / / ~ / ~ / Q Q ~ ~ / / Q Q / ~ Q Q Q Q Q Q ,.c.N.c.m.m.v.b.m.m.m.N.m.m.m.m.k.f.s.s.s.s.s.a.",
"j ;.r.w.r.w.r.w.f.m.n.m.m.m.m.m.b.m.m.m.m.N.n.N.m./ ^ Q Q Q Q Q A / _ _ _ ) _ ) _ ) _ _ ) ) _ ) _ D A Q ~ Q Q Q Q Q ,.c.c.N.m.m.m.m.m.m.m.M.N.m.m.m.k.s.s.s.s.s.k.a.",
"4 -.w.w.w.w.e.w.r.b.m.m.m.m.m.m.m.m.m.m.c.N.m.m.m.Q ~ Q Q Q Q Q Q >.N.N.N.N.m.N.N.N.m.N.m.N.v.b.N.>.Q ~ ( Q ~ Q Q Q >.c.m.N.N.c.m.m.m.m.N.m.m.m.m.m.c.s.s.s.s.s.s.,.",
": -.w.w.w.e.e.w.e.b.m.m.m.m.m.v.m.m.m.m.N.N.m.m.N.Q ~ Q Q Q Q Q / :.N.N.N.m.m.N.N.N.N.N.N.N.N.N.N.:.Q ~ ( Q ~ Q Q Q ,.v.m.c.m.m.b.m.m.m.m.m.m.N.m.N.f.s.s.s.s.s.s.7.",
"6 -.w.w.w.w.w.w.f.m.n.m.m.m.m.m.m.m.m.m.m.N.m.n.m./ ~ / Q Q Q ~ Q >.b.m.m.m.m.m.m.m.m.m.m.m.m.m.N.>.Q ~ ! / Q / Q A ,.m.N.c.m.m.m.m.m.m.N.m.m.m.m.m.k.s.s.f.s.s.s.7.",
"6 ,.w.w.w.e.q.w.e.m.m.c.m.m.m.m.m.m.m.m.m.N.n.N.m./ Q / Q Q Q Q Q &.N.m.m.m.m.m.m.m.m.m.m.m.N.m.N.>.Q Q ( Q ~ Q Q Q ,.x.c.N.m.m.m.v.m.N.m.M.m.m.m.N.f.f.s.h.s.s.s.7.",
": -.w.w.w.r.w.w.w.m.m.m.m.m.m.m.m.m.v.b.m.b.n.N.b./ Q / Q Q Q ~ / ,.N.m.m.m.m.m.m.m.m.m.m.m.m.m.N.>.Q Q ( Q Q Q / Q ,.c.c.N.c.N.m.m.N.m.m.m.m.m.m.m.k.h.s.s.k.w.s.7.",
": -.w.r.w.r.w.w.f.m.n.m.m.c.m.m.m.m.m.m.N.N.m.n.m./ Q / ~ Q Q ~ / ,.N.m.m.m.m.m.m.m.m.m.m.m.m.m.N.>.Q ^ / Q ~ Q Q Q ,.x.m.N.m.m.m.m.m.m.m.m.m.m.m.m.f.s.s.s.s.s.s.7.",
": -.w.w.w.w.e.r.e.m.m.m.m.m.m.m.m.m.m.m.b.b.N.N.m./ Q A Q Q Q Q A &.N.m.N.m.m.m.m.b.m.m.m.m.m.m.N.>.Q Q / Q Q Q Q Q ,.c.c.c.m.m.m.m.m.m.m.m.m.m.c.N.k.s.s.s.s.s.s.7.",
"9 1.w.w.w.w.r.w.r.m.m.m.m.m.m.m.N.m.m.N.N.m.n.N.N.%.X.X.X.} X.[ o.,.N.m.m.m.m.m.m.m.m.m.m.m.m.m.N.:.Q ~ / Q Q / Q Q ,.c.N.N.m.m.m.m.m.m.m.M.m.m.m.m.f.s.k.s.s.s.s.a.",
"Z <.w.w.w.w.r.w.e.m.m.m.m.m.m.m.N.m.m.m.m.m.m.m.N.k.k.N.B.N.B.N.x.m.N.m.m.m.m.m.m.N.m.N.m.m.m.N.N.>./ Q ( Q Q Q Q Q ,.m.m.b.m.m.m.m.m.m.m.m.m.m.m.m.k.f.s.f.s.s.s.a.",
"V 9.w.w.r.w.r.w.f.m.m.m.b.m.m.m.m.m.m.m.m.N.b.m.N.N.B.N.m.c.m.N.m.x.n.m.m.m.m.m.m.m.m.m.v.m.m.m.N.,.Q ~ / Q ~ Q Q Q ,.x.m.m.m.m.N.m.N.m.m.N.m.m.m.N.k.s.s.s.s.s.s.a.",
"V <.w.w.r.w.w.w.w.m.m.n.b.m.m.m.m.m.m.m.m.m.m.m.m.m.m.n.m.m.m.c.m.N.N.m.m.N.m.N.m.m.m.m.b.m.m.m.m.>.Q Q ! / ~ Q / Q ,.c.m.N.m.m.m.m.m.m.m.m.m.b.c.N.k.w.s.s.s.s.s.s.",
"B q.w.w.w.w.w.w.r.m.m.m.m.m.b.v.N.m.m.m.m.N.m.m.b.x.d.m.m.m.m.m.N.N.b.N.m.m.m.m.m.v.m.N.m.m.m.m.m.>.Q ~ ` Q / Q Q Q >.c.c.b.m.m.m.m.v.m.m.M.m.v.m.m.k.f.s.s.s.s.s.s.",
"B 1.w.w.w.e.r.w.f.m.m.m.m.m.m.m.m.N.m.m.m.b.m.m.N.m.m.N.N.N.m.c.m.c.m.m.m.b.b.N.m.m.m.m.m.m.m.m.N.>.Q Q / Q ~ Q Q / ,.m.m.N.c.m.N.m.m.N.m.N.m.m.m.m.f.f.s.f.s.s.s.a.",
"V 1.w.w.w.w.r.r.e.m.n.m.m.m.m.m.m.m.v.m.m.m.m.m.m.m.N.m.m.m.m.N.x.n.m.m.m.v.m.N.m.m.m.m.m.m.m.m.N.>.Q ~ / Q / Q Q Q ,.x.m.N.m.m.m.m.m.m.m.m.m.m.m.m.k.s.s.s.s.s.s.a.",
"V 9.w.w.w.w.w.w.f.c.m.m.m.m.m.m.m.N.m.m.m.m.m.m.m.m.m.m.n.N.c.x.c.m.N.m.m.M.m.m.M.m.m.m.m.m.m.c.C.:./ A ~ Q Q Q Q Q ,.c.N.c.m.m.m.m.N.m.m.m.m.m.m.m.k.s.s.s.w.s.s.a.",
"V q.w.w.w.w.w.w.e.m.m.c.m.m.m.m.m.m.m.m.m.N.m.m.m.m.m.m.m.b.x.M.b.n.d.n.d.d.d.k.d.k.d.d.d.x.d.k.k.%.) Q Q Q Q Q / Q ,.c.c.N.m.m.m.m.M.m.m.N.m.m.m.m.k.s.s.s.s.s.s.a.",
"V <.w.w.w.w.w.w.f.m.m.c.m.m.m.m.m.m.m.m.m.m.m.v.m.m.m.b.b.N.m.m.n.=.' ' ' ' ' ' ' ' ' ' ' ' ' ' ] _ Q Q ! Q / Q Q A ,.m.m.m.m.m.m.m.m.m.m.N.v.b.m.m.f.s.s.s.s.s.k.s.",
"V 1.w.w.w.w.w.w.r.m.M.c.m.m.m.m.m.N.m.N.N.m.m.b.N.m.m.v.N.N.m.m.N.%.Q ! Q Q Q ! Q Q Q Q Q Q Q Q Q Q ~ Q Q Q Q Q Q / ,.x.m.m.m.m.m.m.N.m.m.m.m.m.m.c.k.f.s.s.s.s.s.a.",
"V ;.w.w.w.w.w.w.f.c.m.n.m.m.m.m.m.m.m.m.m.m.m.m.m.m.m.m.N.m.m.m.k.} Q Q Q Q Q Q Q ~ ! Q ~ / Q Q Q Q Q Q Q Q Q Q Q Q -.m.m.b.m.m.m.v.N.m.m.m.m.m.m.m.f.s.s.s.s.s.s.a.",
"V q.r.w.w.w.w.w.e.m.m.m.m.c.m.m.m.v.m.m.m.m.m.m.m.m.m.m.n.m.m.b.C.o.Q Q ( Q ~ Q Q Q Q Q Q / ! Q ~ Q / ( ( Q Q Q Q / ,.x.m.b.m.m.m.m.m.m.N.M.m.m.m.m.k.s.s.s.s.s.s.a.",
"B q.w.w.w.w.w.w.e.m.m.c.m.m.m.m.m.m.m.m.N.m.N.m.m.m.m.m.N.n.m.x.N.} Q Q Q Q Q / ! Q Q / Q ! / ~ / Q Q Q Q Q ! / Q / ,.c.m.b.m.m.N.m.m.m.m.m.m.m.m.m.k.s.s.s.s.s.s.s.",
"V <.w.w.f.e.w.w.f.m.m.m.b.m.m.m.m.N.m.m.m.m.m.m.m.m.m.m.m.N.N.c.N.} Q Q Q Q Q Q / Q Q Q Q / Q Q Q Q Q Q / Q / ! Q / >.c.N.m.m.m.m.m.m.N.m.m.m.m.m.m.k.s.s.s.k.s.s.a.",
"V <.w.w.e.w.w.r.w.m.m.m.b.m.m.m.N.m.m.m.m.N.m.N.m.m.m.m.c.m.N.x.N.o.^ ^ Q ^ / / ~ / ~ / Q / ~ / / / Q Q / ~ ~ ! Q A >.N.m.m.m.m.m.m.m.m.m.m.m.m.c.m.f.f.s.s.f.s.s.a.",
"p -.w.w.w.w.r.r.f.m.n.m.m.m.b.v.m.m.v.m.m.m.m.m.m.m.m.m.N.m.m.m.N.>.' ' ' ' ' ' ' ' ' ' ' ' ' ' ' ' ' ' ' ' ' ' ) ] ,.N.b.b.m.m.m.m.m.m.m.M.m.m.m.c.k.f.s.s.f.s.s.a.",
"6 -.r.w.w.e.w.w.f.c.m.m.m.c.m.m.m.m.m.m.m.m.m.m.m.m.m.m.m.m.N.x.N.k.k.m.m.m.k.m.k.m.m.m.k.m.m.m.m.m.k.m.m.m.m.m.k.k.N.m.n.n.m.m.m.m.m.m.m.N.m.m.m.b.k.f.s.h.s.s.k.y.",
"6 -.r.w.w.e.s.w.f.c.m.m.m.m.m.m.m.m.m.m.m.m.N.m.N.m.m.N.m.m.m.m.N.N.N.m.m.m.c.m.c.m.m.m.c.m.m.m.m.m.m.m.m.m.c.c.b.m.x.c.m.m.m.m.m.m.m.m.m.m.N.m.M.m.k.s.f.s.s.s.s.,.",
": -.r.w.w.w.w.w.w.m.m.x.m.c.m.m.b.N.m.m.m.m.m.m.m.m.m.m.N.m.c.N.N.n.x.c.c.n.m.m.m.m.m.m.m.x.m.m.n.m.c.m.v.m.m.m.m.N.n.c.m.N.m.m.m.m.m.m.m.m.m.m.c.N.k.w.s.s.w.s.s.,.",
"6 -.w.w.w.w.w.w.f.c.m.m.m.M.m.m.b.v.m.N.m.m.N.m.m.m.m.v.n.m.m.N.m.m.c.m.m.m.m.m.m.m.m.m.m.m.m.m.m.m.m.m.m.m.m.m.m.N.N.N.c.b.m.m.m.m.m.m.N.M.m.m.m.N.k.f.s.s.s.s.k.,.",
": -.w.w.r.w.r.w.f.m.m.c.b.m.m.m.m.m.N.m.m.m.v.m.N.m.m.N.N.N.N.N.m.m.M.m.m.m.m.m.m.m.c.m.N.m.m.m.m.m.m.m.m.m.m.m.N.m.m.m.m.m.m.m.m.m.v.N.m.m.m.m.m.m.k.f.f.s.s.s.s.y.",
": -.w.w.r.w.w.w.e.m.m.M.m.m.m.m.m.m.m.m.m.m.m.m.m.m.m.m.m.m.N.b.x.m.n.m.m.m.n.c.M.c.m.m.m.m.m.m.m.m.m.m.N.m.m.m.m.m.m.m.m.m.m.m.m.m.b.b.m.m.m.m.m.m.f.s.k.s.s.s.s.,.",
"6 -.w.w.r.w.w.r.w.m.m.c.m.m.m.m.m.m.m.N.m.N.N.m.m.m.m.m.m.m.b.m.m.m.m.m.N.m.m.m.m.m.m.x.m.m.M.m.m.m.m.m.m.N.m.v.m.m.m.m.m.m.m.m.m.m.m.m.m.m.m.m.m.m.k.s.s.s.s.s.f.,.",
"> -.w.w.r.w.w.w.f.m.m.m.m.m.m.m.v.m.m.m.m.m.m.m.N.m.v.m.b.m.N.x.m.d.k.m.m.k.m.k.m.m.m.m.m.b.m.c.m.m.m.m.m.m.m.m.N.m.m.m.m.m.m.m.M.N.m.m.N.m.m.m.m.m.k.s.s.s.s.k.s.y.",
"i ;.w.w.w.e.r.w.e.c.m.m.m.c.m.m.m.m.m.m.m.m.N.m.m.m.m.m.N.m.m.c.b.,.[ [ [ [ [ [ } X.m.m.n.m.N.m.m.m.m.m.m.N.m.N.m.m.N.m.m.m.m.m.m.m.m.m.m.m.m.m.m.N.f.s.s.s.k.s.s.a.",
"Z ;.w.w.w.w.w.w.w.N.m.m.m.m.m.m.m.m.m.m.m.m.m.m.m.m.m.m.N.m.m.N.N.X.A Q Q Q A / Q ` m.N.n.m.m.m.m.N.m.m.m.m.m.m.N.m.m.m.m.N.b.v.m.m.m.m.m.M.m.m.m.b.f.s.s.s.s.s.s.a.",
"Z q.w.w.w.w.w.w.f.c.N.M.x.c.v.c.m.m.N.N.m.m.m.m.m.m.m.m.N.m.m.m.N.o.Q Q Q Q ~ Q ~ ` N.N.c.m.m.m.m.N.m.m.m.v.m.m.m.v.m.m.m.m.m.N.n.N.c.c.v.M.N.m.N.m.c.s.s.s.s.s.s.a.",
"V <.f.w.w.w.w.w.r.m.m.c.c.c.V.m.n.B.N.c.m.m.m.m.m.m.m.m.m.m.N.m.m.o.Q Q Q Q / / ^ ^ N.N.c.m.m.N.m.m.m.m.m.b.m.m.m.m.m.m.m.N.b.N.B.N.c.m.V.c.b.c.m.N.h.s.s.s.s.s.s.s.",
"V q.w.w.w.w.w.w.d.B.M.m.b.m.m.N.c.m.x.b.M.m.m.m.m.m.m.m.c.c.m.N.N.o.Q ~ Q ~ ~ ~ Q ` N.N.v.m.m.N.m.m.m.N.N.m.m.m.m.m.m.m.m.m.N.N.x.n.c.b.n.c.m.x.M.B.k.g.s.s.s.s.s.g.",
"V <.w.w.w.w.w.w.0.c.n.N.m.n.m.N.b.N.x.m.N.m.N.m.m.m.m.m.N.N.m.m.N.} Q Q ~ Q / Q ( ` N.N.m.m.m.m.N.m.m.m.m.m.m.v.m.m.m.m.m.m.N.c.m.N.m.b.N.m.M.N.N.m.f.f.s.s.s.s.s.s.",
"V ;.w.w.w.w.w.w.r.m.c.m.N.b.m.u.M.n.B.c.N.N.N.m.m.m.m.m.m.N.N.m.k.%.( Q Q Q ( Q Q ` b.m.m.m.m.m.m.m.m.v.N.m.m.N.m.m.m.m.m.m.N.n.N.n.M.l.m.m.b.N.b.r.f.f.s.s.s.s.s.s.",
"V q.e.w.w.w.w.w.c.c.b.b.m.b.b.N.C.m.c.n.M.m.m.m.m.m.m.m.m.m.m.N.B.o.A / ! ~ Q Q Q ` m.m.m.m.m.N.m.m.m.m.m.m.m.m.m.m.m.m.m.m.n.m.c.N.C.b.b.m.c.b.b.m.k.j.s.s.s.s.s.a.",
"V q.w.w.w.w.e.w.v 5 3 4 5 6 6 4 7 3.C.x.c.c.N.m.m.m.m.m.m.m.N.v.N.x.k.d.d.d.n.d.d.k.N.N.m.m.m.m.m.m.m.m.m.m.m.m.m.m.m.m.m.m.b.x.N.W 7 4 6 : 5 4 2 7 k u.s.s.s.s.s.a.",
"B <.e.w.w.w.w.w.v O . .   # . X . E N.N.N.m.c.m.m.m.m.m.m.m.m.m.m.m.m.m.m.N.N.m.m.m.m.m.m.m.m.m.m.m.m.m.m.m.m.m.m.m.m.m.m.m.m.v.N.E . X . + . + X . s f.s.s.f.s.s.a.",
"B q.w.w.w.w.w.w.v O . .       X $ #.N.v.c.m.c.m.m.m.c.m.m.m.m.c.m.m.m.m.m.m.m.m.m.M.m.m.m.m.m.c.m.m.m.v.m.v.m.m.m.c.c.n.m.m.m.m.N.@.. X + . . .   . a d.s.s.s.s.s.a.",
"B q.w.w.w.w.w.w.v O . + . # + o $ E N.N.N.m.m.m.m.m.m.m.m.m.m.m.m.m.m.m.m.m.m.m.m.m.m.m.m.m.m.m.m.m.m.m.m.m.m.m.m.m.m.m.m.m.m.m.N.#.& o + . . +   . s a.s.s.s.s.k.s.",
"B q.w.w.w.w.w.w.v O . .   # # . $ T N.N.b.m.m.m.m.m.c.m.m.m.m.m.m.m.c.m.m.m.m.m.m.m.m.m.m.m.m.m.c.m.m.m.m.v.m.m.m.m.m.c.m.m.c.m.b.@.$ . + +   $ X . s f.s.s.s.s.s.s.",
"B q.w.e.w.w.w.w.v O . # . # . X $ E N.m.b.m.m.m.m.m.m.m.m.m.m.m.m.m.m.m.m.m.m.m.m.m.m.m.m.m.m.m.m.m.m.m.m.m.m.m.m.m.m.m.m.m.b.m.N.E $   . . . + X . s a.s.s.s.s.s.a.",
"C q.r.w.w.w.w.w.v O . .   # + o $ @.N.n.N.m.m.m.m.m.m.m.n.n.m.m.m.m.M.m.m.m.m.m.m.m.m.m.M.m.m.m.m.m.m.m.M.c.m.m.m.m.m.m.m.m.m.n.N.@.. o + .   .   . a s.s.s.s.s.s.a.",
"B 9.r.w.w.w.w.w.v O . .     O   . I N.x.n.x.n.d.x.x.x.x.x.x.x.v.x.n.x.x.x.n.x.n.x.x.n.x.x.x.x.x.x.n.x.x.x.x.x.x.x.x.n.x.x.n.x.x.m.E +   O . . .   . s e.s.s.s.s.s.s.",
"u ;.w.q.w.w.w.e.S y t w q e e 0 r N 4.@. .E E E E E E E E E E E E E E E E E E E E E E E E E E E E E E E E E E E E E E E E E  .E 4.N r 0 e t e e w 0 l i.s.h.j.e.s.y.",
": -.w.e.w.w.w.0.O.K 2.W L K R W K T Y R P K K K K K K K K K K K Y K K L K K K K K K K K K L K K K K K K K K K K K L K P K K K W Y Y K W R G K P 2.H J +.h.h.s.k.s.y.",
": >.w.w.w.r.q.*.U K J K K K J T L L L Y R K P P P P P P P P P P P P P P P P P P P P P P P P P P P P P P P K P P P P P P P P P Y L L L T J E L J P E H G g.s.w.s.k.,.",
"8 -.w.w.e.*.O.K L  .L K P K Y K R G G U R P P P P P P P P P P P P P P P P P P P P P P P P P P P P P P P P P P P P P P P R K R H G G R K Y E Y E I L L K J O.u.f.s.6.",
": :.w.q.8.E K U R R R 2.H P L I E E K P K P P P P P P P P P P P P P P P P P P P P P P P P P P P P P P P P P P P P P P P P K K P K L E T L L H H H P R U P G @.8.s.6.",
": :.w.*.E K P R K G K K L L R P J P P I I P P P P P P P P P P P P P P P P P P P P P P P P P P P P P P P P P P P P P P P P P I I I P G P P L I K P R R P R G G O.a.,.",
"8 >.-.O.K P R K K R P K K R G R Y Y Y R K P P P I K P P I P P P P P I P I K P P K I P P P P P P P P P P I P K I P P P P I P K R Y Y Y R P H P I L K K P P P R F ..8.",
"4 ,.O.R P U P P P P P P P P P P P P P K P P P P P P P P K P P P P K P P P P P P P P P P P P P P P P P K P P P P P P P P P P P P P P P P P P P P P P P P P P E K K 5."
};
