/* XPM */
static char *collectible[] = {
"32 32 6 1",
". c None",
"+ c #FFD700",
"* c #FFA500",
"# c #FFFF00",
"@ c #DAA520",
"% c #B8860B",
"................................",
"................................",
"................................",
"................................",
"..........%%%%@@@@@@%%%%........",
"........%@@@@@@@@@@@@@@@%.......",
"......%@@@@@@@@@@@@@@@@@@@%.....",
".....%@@@@@@@@@@@@@@@@@@@@@%....",
"....%@@@####++++++++****@@@%....",
"...%@@@@###++++++++++***@@@@%...",
"..%@@@@####++++++++++***@@@@@%..",
"..%@@@####++++++++++++**@@@@@%..",
".%@@@@###+++++++++++++++*@@@@@@%",
".%@@@###+++++++++++++++**@@@@@%.",
".%@@@##+++++++++++++++***@@@@@%.",
".%@@@##++++++++++++++++**@@@@@%.",
".%@@@@#+++++++++++++++***@@@@@%.",
".%@@@@+++++++++++++++++**@@@@@%.",
".%@@@@@*+++++++++++++++*@@@@@@%.",
".%@@@@@@**+++++++++++**@@@@@@@%.",
"..%@@@@@@***++++++++**@@@@@@@%..",
"..%@@@@@@@***+++++***@@@@@@@@%..",
"...%@@@@@@@@@******@@@@@@@@@@%..",
"...%@@@@@@@@@@@@@@@@@@@@@@@@%...",
"....%@@@@@@@@@@@@@@@@@@@@@@%....",
".....%@@@@@@@@@@@@@@@@@@@@%.....",
"......%%@@@@@@@@@@@@@@@@@%......",
"........%%@@@@@@@@@@@@@%%.......",
"..........%%%%@@@@@@%%%%........",
"................................",
"................................",
"................................"
};
