/* XPM */
static char *exit[] = {
"32 32 6 1",
". c #000000",
"+ c #48D848",
"* c #30C030",
"# c #20A020",
"@ c #108010",
"% c #FFFFFF",
"................................",
"................................",
"................................",
"................................",
"..@@@@@@@@@@@@@@@@@@@@@@@@@@....",
"..@+++++++++++++++++++++++++....",
"..@+########################....",
"..@+########################....",
"..@+########################....",
"..@+########################....",
"..@+########################....",
"..@+########################....",
"......@@@@@@@@@@@@@@@@@@........",
"......@+++++++++++++++*@........",
"......@+##############*@........",
"......@+##############*@........",
"......@+##############*@........",
"......@+##############*@........",
"......@+##############*@........",
"......@+##############*@........",
"......@+##############*@........",
"......@+##############*@........",
"......@+##############*@........",
"......@+##############*@........",
"......@+##############*@........",
"......@+##############*@........",
"......@+##############*@........",
"......@+##############*@........",
"......@+##############*@........",
"......@+**************@@........",
"......@@@@@@@@@@@@@@@@@@........",
"................................"
};
