/* XPM */
static char *floor[] = {
"32 32 4 1",
". c #7EC850",
"+ c #68B840",
"* c #90D860",
"# c #58A830",
"................................",
"................................",
"..*..*..*..*..*..*..*..*..*..**.",
"................................",
"..+..+..+..+..+..+..+..+..+..+..",
"................................",
"..#..#..#..#..#..#..#..#..#..#..",
"................................",
"................................",
"................................",
"..*..*..*..*..*..*..*..*..*..**.",
"................................",
"..+..+..+..+..+..+..+..+..+..+..",
"................................",
"..#..#..#..#..#..#..#..#..#..#..",
"................................",
"................................",
"................................",
"..*..*..*..*..*..*..*..*..*..**.",
"................................",
"..+..+..+..+..+..+..+..+..+..+..",
"................................",
"..#..#..#..#..#..#..#..#..#..#..",
"................................",
"................................",
"................................",
"..*..*..*..*..*..*..*..*..*..**.",
"................................",
"..+..+..+..+..+..+..+..+..+..+..",
"................................",
"..#..#..#..#..#..#..#..#..#..#..",
"................................"
};
