/* XPM */
static char *player[] = {
"32 32 8 1",
". c None",
"+ c #FF0000",
"* c #0000FF",
"# c #FFCC99",
"@ c #8B4513",
"% c #FFFFFF",
"& c #000000",
"$ c #FFD700",
"................................",
"................................",
"................................",
"............&&&&&&&.............",
"...........&+++++++&............",
"..........&+++++++++&...........",
"..........&##&#&#&#&............",
".........&###&#&#&#&&...........",
".........&#########&............",
".........&#&###&###&............",
"..........&########&............",
"..........&###&#&&&.............",
"...........&&&&&................",
"..........&+++++&&..............",
".........&+++++++++&............",
"........&+++++++++++&...........",
"........&+++++++++++&...........",
".........&+++++++++&............",
"..........&#++++++#&............",
".........&##&#++&#&&............",
"........&####&&&####&...........",
".......&######&&#####&..........",
".......&#####&...&####&.........",
"......&#####&.....&####&........",
"......&####&.......&####&.......",
"......&***&.........&***&.......",
"......&***&.........&***&.......",
".....&****&.........&****&......",
".....&&&&&...........&&&&&......",
"................................",
"................................",
"................................"
};
