/* XPM */
static char *_e6f862fdac24ac1edb13c6e5e777418Edpg2WdL57kpcQNH[] = {
/* columns rows colors chars-per-pixel */
"20 37 67 1 ",
"  c None",
". c black",
"X c #010000",
"o c #000100",
"O c #010100",
"+ c #000001",
"@ c #010001",
"# c #000101",
"$ c #482000",
"% c #492000",
"& c #482100",
"* c #492100",
"= c #482001",
"- c #000840",
"; c #010840",
": c #000940",
"> c #000841",
", c #010841",
"< c #000941",
"1 c #101860",
"2 c #111860",
"3 c #101960",
"4 c #101861",
"5 c #111861",
"6 c #484848",
"7 c #494848",
"8 c #484948",
"9 c #484849",
"0 c #A80000",
"q c #A90000",
"w c #A80100",
"e c #A80001",
"r c #A80101",
"t c #E81800",
"y c #E91800",
"u c #E81900",
"i c #E91900",
"p c #E81801",
"a c #E91801",
"s c #E81901",
"d c #904000",
"f c #904001",
"g c #E84018",
"h c #E94018",
"j c #E84118",
"k c #E84019",
"l c #D86818",
"z c #D96818",
"x c #D96918",
"c c #D86819",
"v c #F8A038",
"b c #F8A039",
"n c #90A0A0",
"m c #90A1A0",
"M c #90A0A1",
"N c #90A1A1",
"B c #95A5A5",
"V c #F8E0A8",
"C c #F9E0A8",
"Z c #F9E1A8",
"A c #F8E0A9",
"S c #B0C0C0",
"D c #B0C1C0",
"F c #B5C6C6",
"G c #F8F8F8",
"H c #F9F8F8",
"J c #F8F8F9",
/* pixels */
"   77.......7       ",
" 7...0000000..7     ",
" .0ppgggggggg0..7   ",
" .000ppgggggggg0.   ",
" .000000pppppppp.   ",
" .000000ppppGGpp.7  ",
" .000000ppppGGpp0..7",
" .000000ppgggggggg0.",
" .==00000ppppppppp0.",
" .=====00ppppppp00.7",
" .=lf==f.7n...7S..7 ",
" .=ll==f.7G...7n.   ",
" .=ll==f.7n7llll..7 ",
" .=llffvvvvvvvVVVv. ",
" .=llllllvVVlllvVV. ",
" .=llllllvVVlllvVV. ",
" .=llllll====llvvl. ",
" .0llllll=.......=. ",
"7.0000lll=.......=. ",
".00p0000--0000--.0. ",
".000p=00--0ppp-1.0. ",
".000p=00110ppp-1.0. ",
".000p.--11111111.0. ",
".000p.--11111111.0.7",
".n00p.--11111111.FF.",
".nSSSS.-11111111.FG.",
".nSSSG.-11111111.FG.",
".nSSSG.-------..7F.7",
".nSSS.........7.nB. ",
"7..nn..------. 7..7 ",
"  7..7.--1111.      ",
"      .--1111.      ",
"      .......7      ",
"      .----.        ",
"      .--11.        ",
"      .--11.        ",
"       ....         "
};
