/* XPM */
static char *wall[] = {
"32 32 5 1",
". c #D87820",
"+ c #C86810",
"* c #E88828",
"# c #A85808",
"@ c #000000",
"@@@@@@@@@@@@@@@@@@@@@@@@@@@@@@@@",
"@******************************@",
"@*..........................*.*@",
"@*..........................*.*@",
"@*..........................*.*@",
"@*..........................*.*@",
"@*..........................*.*@",
"@*..........................*.*@",
"@*..........................#+*@",
"@*..........................#+*@",
"@*..........................#+*@",
"@*##########################++*@",
"@*++++++++++++++++++++++++++##*@",
"@******************************@",
"@@@@@@@@@@@@@@@@@@@@@@@@@@@@@@@@",
"@............*****************+@",
"@............*................+@",
"@............*................+@",
"@............*................+@",
"@............*................+@",
"@............*................+@",
"@............*................+@",
"@............*................+@",
"@..........##+................+@",
"@..........##+................+@",
"@..........##+................+@",
"@##########+++................+@",
"@+++++++++####****************+@",
"@+++++++++####################+@",
"@##############################@",
"@@@@@@@@@@@@@@@@@@@@@@@@@@@@@@@@",
"@@@@@@@@@@@@@@@@@@@@@@@@@@@@@@@@"
};
