/* XPM */
static char *result[] = {
/* columns rows colors chars-per-pixel */
"92 90 171 2 ",
"   c #040000",
".  c #0B0203",
"X  c #010B02",
"o  c #0C0B03",
"O  c #02030C",
"+  c #0C040B",
"@  c #010C0C",
"#  c #0B0B0C",
"$  c #130203",
"%  c #190504",
"&  c #120C04",
"*  c #13040C",
"=  c #120B0C",
"-  c #001104",
";  c #11100B",
":  c #040513",
">  c #0B0614",
",  c #030D11",
"<  c #0A0A13",
"1  c #111011",
"2  c #1C1B1C",
"3  c #2D190D",
"4  c #261B15",
"5  c #291B14",
"6  c #3E1E12",
"7  c #36241C",
"8  c #441B0D",
"9  c #451E13",
"0  c #432016",
"q  c #472B1B",
"w  c #4C2D1B",
"e  c #522611",
"r  c #5C2711",
"t  c #5D2A15",
"y  c #562D1C",
"u  c #5C2B19",
"i  c #4C301C",
"p  c #642615",
"a  c #642915",
"s  c #612718",
"d  c #64291B",
"f  c #772E17",
"g  c #7B2F1A",
"h  c #6E3018",
"j  c #743617",
"k  c #7B3316",
"l  c #74341B",
"z  c #7C331B",
"x  c #472B21",
"c  c #4C2F21",
"v  c #542D21",
"b  c #5A2F22",
"n  c #4F3323",
"m  c #513322",
"M  c #583122",
"N  c #7D6B5A",
"B  c #81331B",
"V  c #86391C",
"C  c #8C3D1E",
"Z  c #91371D",
"A  c #953D1D",
"S  c #9B3D1D",
"D  c #A13E1E",
"F  c #8C3D22",
"G  c #943D21",
"H  c #9C3E20",
"J  c #A03E20",
"K  c #96421E",
"L  c #9B401E",
"P  c #A2401E",
"I  c #AC431E",
"U  c #8A4328",
"Y  c #954220",
"T  c #9D4020",
"R  c #A34321",
"E  c #AB4421",
"W  c #A34A25",
"Q  c #AD4924",
"!  c #A64C2B",
"~  c #AB4B29",
"^  c #B34724",
"/  c #B54B25",
"(  c #BB4C24",
")  c #B04A28",
"_  c #BD4D2A",
"`  c #A1562F",
"'  c #AF532C",
"]  c #BD5225",
"[  c #BD532A",
"{  c #A95131",
"}  c #B35B35",
"|  c #BC5F38",
" . c #BB6233",
".. c #B6623C",
"X. c #C54F26",
"o. c #C94E25",
"O. c #C44E29",
"+. c #C94D28",
"@. c #D14E26",
"#. c #C55126",
"$. c #CA5126",
"%. c #C45229",
"&. c #C9542B",
"*. c #C05E2E",
"=. c #C85928",
"-. c #D15429",
";. c #C45931",
":. c #C06033",
">. c #C16A3B",
",. c #CF6A3C",
"<. c #D06737",
"1. c #D66638",
"2. c #D16839",
"3. c #C8713F",
"4. c #97765E",
"5. c #A86B45",
"6. c #BC774D",
"7. c #B6795D",
"8. c #8C7763",
"9. c #937B65",
"0. c #987B66",
"q. c #957D6A",
"w. c #9C7E6C",
"e. c #C16F42",
"r. c #C37742",
"t. c #CD7744",
"y. c #CD7A44",
"u. c #C2754D",
"i. c #CB7649",
"p. c #C77949",
"a. c #CD7C4C",
"s. c #D37644",
"d. c #D37B46",
"f. c #D87D44",
"g. c #D47C4A",
"h. c #D97C4B",
"j. c #C17551",
"k. c #CC7C52",
"l. c #9B846B",
"z. c #9B8872",
"x. c #AF8865",
"c. c #AB8D74",
"v. c #CE824C",
"b. c #D98047",
"n. c #D3814B",
"m. c #D8834A",
"M. c #DE9769",
"N. c #DC9C6E",
"B. c #CB9670",
"V. c #DA9A72",
"C. c #DE9E78",
"Z. c #DDA175",
"A. c #E6A170",
"S. c #EEA776",
"D. c #EDAA73",
"F. c #EEAB7B",
"G. c #F3A674",
"H. c #F2AB7E",
"J. c #F6CC99",
"K. c #FECF9D",
"L. c #FED19F",
"P. c #F5CCA0",
"I. c #FECFA6",
"U. c #FECFAB",
"Y. c #F6D7A6",
"T. c #FDD2A5",
"R. c #FED9A3",
"E. c #FED1A9",
"W. c #FED9AA",
"Q. c #FDD4B3",
"!. c #F9D9B1",
/* pixels */
"~ S R A E J J D D D R P D D D D D D D D D D D D D D D D D D D D D D D D D D D D D D D D D D D D D D D D D D D D D D D D D D D D D D D D D D D D D D D D D D D D D D D D D D D D P R *.d.",
"N.{ S P S T R H H R T T R H T J T T H R H H T T H R S H T S T T T J H H T T T J T T T H S R T T T T S R R T H S R T H R H L H R T T J T T T T T R H H H H R H R T S S R T H T J R ..g.h.",
"T.C.! J R S S R R T H J L T T R T T T T P T T T T T R H T R T T T T T R R T T T T T T T T T R T R T T T T T T T H T T T R L H R T T T T R T T T T T P T T L T T R L H T T T T W | p.m.d.",
"T.I.M.' R P P P P D P P R P D D P P P P P P P P P P P P P P P P P P P P D P P P P P P P P P D D D P P P P P P P P D P P D P D D P P P P D D P P P P P P P D D D D D P P P S E :.d.g.d.h.",
"T.T.K.A.W R P S P L P P D P P P P D P P P L P P P P L P P P L P P P P S P P P P L P P P P L P P D P L P P P L P P L P D D P P P P L D P P P P P P P P P P P P P P P P R P E ..g.h.k.h.h.",
"I.Q.Y.J.Z.~ R L L T T T S T T T T T T T T T T T T T T T T T T T T T T T L H T T T T T T T T T T T T T T T T T T T T T T T T T L T T T T T T T T T T T L T T T H T T T T T  .g.h.t.v.b.t.",
"I.E.T.T.I.N.` L P I T T L R E H P L T S Y L T L L L L S L L L L L L L L L L L L L L L L S L L L L L L S L L L L L L L L L L L L L L L T L T L K Y P T I R T E R T P D T  .g.g.g.g.g.d.g.",
"T.E.T.T.I.I.7.d s s d s a u t s C Q Q I I E E E E E E E E E E E E E E E E E E E E E E E E E E E E E E E E E E E E E E E E E E E E E E E E E I E E T u t y r p a t a a U y.g.h.g.g.g.h.g.",
"T.E.T.T.I.Y.9.. X X   . o . . % l _ X.o.o.X.X.( ] O.( X._ X.X.X.] O.( %.X.( #.X.X.X._ #.X.( #.X.( O.X._ ( X.X.( X._ X.X._ X.O.( X.X.( %._ #.X.X.O.Z % .   O . + @ @ o m 6.d.g.g.g.g.g.g.",
"T.T.T.T.I.L.w.+ @ # * * . + @ + z +.X.X.X.O.X.X.O.#.$.X.#.#.X.X.O.$.#.#.X.X.#.#.#.O.#.#.X.X.#.X.$.#.#.X.$.#.X.X.#.#.#.X.#.#.$.#.X.X.#.$.X.X._ O.+.A X @ @ > . . , @ + y d.d.g.g.g.g.g.g.",
"I.E.T.T.I.R.9.X X o . o @ $ @   z o.#.#._ X.X.X.X.X.X.X.X.X.X.X.X.X.X.X.X.X.X.X.X.X.X.X.X.X.X.X.X.X.X.X.X.X.X.X.X.X.X.X.X.X.X.X.X.X.X.X.X.$.] #.@.S X X . , . o o X X w i.a.g.g.g.g.h.d.",
"T.E.T.T.E.W.8.o X . . . X . @ * k o.X.X.X.X.X.X.#.X.#.X.#.X.X.X.X.#.X.X.X.X.X.X.X.X.#.X.X.X.X.X.#.#.#.X.#.#.X.X.#.X.X.#.X.#.#.#.X.X.X.X.X.o.( X.o.A . # $ : o . . . O c k.g.h.h.g.g.d.g.",
"I.E.T.T.I.W.8.$ . # . #   o O * z X.X.O.X.X.X.X.X.X.X.X.X.X.X.X.X.X.X.X.X.X.X.X.X.X.X.X.X.X.X.X.X.X.X.X.X.X.X.X.X.o.X.X.X.X.X.X.X.X.X.X.X.o.X.$.o.S $ # . . &   . . . i p.d.h.g.g.g.d.g.",
"E.E.T.T.I.T.l.. O @ : #   o O $ k O.O.O.X.X.X.o.X.X.X.X.X.X.X.X.X.X.X.X.X.X.X.o.X.X.X.X.X.X.X.X.X.X.X.X.X.X.o.X.X.X.X.X.X.X.X.X.X.X.X.X.X.#.( #.X.Z $ X X . o @ : * . q i.v.g.g.g.h.g.g.",
"T.E.T.T.I.W.9.X $ $ X $ o - # o B o.( o.#.X.X.X.X.X.X.X.X.X.O.X.X.X.X.X.X.X.X.X.X.X.X.X.X.X.X.X.X.X.X.X.X.X.X.X.X.X.X.X.X.X.X.X.X.X.X.X.X.O.X.+.X.S o & X . . * . # # w r.d.g.h.g.h.g.g.",
"T.T.T.T.I.W.0.X @ @ , > O O > . z o.=.o.#.#.X.X.X.X.X.X.X.X.$.X.X.X.X.X.X.X.X.X.X.X.X.X.X.X.X.X.X.X.X.X.X.X.X.X.X.X.X.X.X.X.X.X.X.X.#.X.X.#.X.+.#.H + * : @ : @ X O + v k.n.g.g.a.g.g.g.",
"I.E.T.T.T.E.0.o . .   * % o = & l ( ] o.X.X.X.X.X.X.X.X.X.X.X.X.$.X.X.X.#.X.O.X.X.X.#.X.X.X.X.X.X.X.X.X.X.X.X.X.X.X.#.X.X.#.X.X.X.O.#.X.X.$.X.X.] C & $ o & . $ o & $ b j.a.h.g.g.g.g.g.",
"T.E.T.T.E.T.B.l z B z z z k z l Q $.o.+.$.X.X.X.X.#.X.X.X.X.X.X.X.X.X.X.X.X.X.X.X.X.X.X.X.X.X.#.X.X.X.X.X.X.X.X.#.X.o.X.X.O.X.X.X.X.X.X.X.#.#.O.#.^ l k f B g z k j l ` g.g.h.g.g.g.g.g.",
"I.E.T.T.I.W.F.[ $.o.o.X.X.o.+.( o.o.X.X.%.X.X.X.X.X.X.X.X.X.#.X.X.X.X.X.X.X.#.X.X.X.X.X.X.o.X.O.X.X.X.X.X.X.X.O.X.X.X.X.X.X.X.X.X.X.X.X.X.%.#.X.o.-.%.$.$.#.X.$.X.X.%.,.f.g.h.g.g.g.h.g.",
"T.E.T.T.E.!.H.=.X.( X.] O.X.%.] #.X.X.+.O.X.X.X.X.X.X.X.X.X.X.X.X.X.X.X.X.X.X.X.X.X.X.X.X.#.X.X.X.X.X.X.X.X.#.X.X.X.X.X.#.X.X.X.X.X.#.X.X.+.X.X.X.( ( X.] ( X.O.o.o.+.e.v.d.h.g.g.g.g.g.",
"T.E.T.T.I.I.G.&.X.#.$.#.o.o.o.o.o.O.X.#.X.X.X.X.o.#.O.X.X.X.X.X.X.X.X.X.X.X.X.X.X.X.O.#.#.X.X.X.X.X.X.X.X.X.X.X.X.X.o.X.X.X.X.X.X.X.X.X.O.#.#.#.$.X.@.o.@.$.X.o.#.o.o.1.g.v.g.g.g.k.h.g.",
"T.T.T.T.E.!.D.-.X.( X.( o.#.X.X.#.O.X.X.X.X.X.X.X.X.#.X.X.X.X.X.X.X.X.X.X.X.X.X.X.X.X.X.X.X.X.X.X.X.X.X.X.X.X.X.X.O.#.X.X.X.X.X.X.X.X.X.#.o.#.#.X._ -.( ( o.o.X.] X.o.1.v.g.h.g.g.g.g.d.",
"I.E.T.T.I.W.S.&.X.X.o.X.X.X.X.X.X.X.X.X.X.X.X.X.X.X.X.X.#.X.X.X.O.X.X.X.#.X.X.X.#.X.X.X.X.X.X.X.X.X.X.X.X.X.X.X.#.X.X.X.X.X.X.X.X.X.X.X.X.X.X.X.X.X.X.X.X.X.X.X.X.X.X.<.n.h.g.y.g.h.d.g.",
"E.E.T.T.I.Y.S.&.X.o.X.X.X.X.X.X.X.X.X.X.X.X.X.X.X.X.X.X.X.X.X.X.#.X.X.X.o.X.X.X.X.X.X.X.X.X.X.X.X.X.X.X.X.$.X.X.X.X.X.X.#.X.X.X.X.X.#.X.X.X.X.X.X.X.X.X.X.X.X.X.X.X.X.<.g.h.n.d.g.h.d.k.",
"I.E.T.T.I.E.F.&.X.X.X.X.X.X.X.X.X.X.#.X.X.X.X.X.X.#.X.X.X.X.#.X.X.X.X.X.X.X.X.X.O.#.X.X.X.X.X.X.#.o.X.#.X.X.X.#.X.X.X.X.X.X.X.X.X.X.X.X.X.X.X.X.X.X.X.X.X.X.X.o.X.X.X.2.g.g.g.d.g.g.g.g.",
"T.E.T.T.U.Y.S.&.X.X.+.( X.X.X.X.X.X.X.X.X.X.X.X.X.X.X.X.X.X.X.X.X.X.X.X.o.#.X.X.X.X.X.X.X.X.X.X.X.O.X.X.X.X.X.X.X.X.X.X.X.X.X.X.X.X.X.#.X.X.X.X.X.X.X.X.X.X.o.X.X.X.X.<.g.g.g.d.g.g.g.g.",
"T.E.T.T.I.E.F.&.X.X.+.X.X.X.X.X.X.X.X.X.X.X.X.X.#.o.X.X.#.O.X.X.X.X.#.X.X.X.X.X.X.X.X.X.X.X.X.X.X.X.X.X.X.X.X.X.X.X.X.#.X.O.X.X.X.X.X.X.X.X.o.#.X.X.X.X.X.X.o.X.X.X.X.,.g.g.g.d.g.g.g.n.",
"T.T.T.T.I.Y.S.&.X.X.O.X.X.X.X.X.X.#.X.O.#.O.X.X.X.X.X.X.o.X.X.X.X.X.X.X.X.#.X.X.X.X.X.X.$.X.X.X.X.X.X.X.X.X.X.X.X.X.X.X.X.X.$.X.X.X.X.X.X.X.#.O.X.X.X.X.X.X.X.X.X.X.X.<.n.g.d.n.g.g.g.g.",
"I.E.T.T.T.T.S.&.X.X.X.X.X.X.X.X.X.X.X.X.X.X.X.X.X.X.X.X.#.X.X.#.o.X.X.X.O.X.#.X.X.X.X.X.#.O.X.X.X.X.X.X.X.X.X.X.X.#.X.X.X.X.X.X.O.X.X.X.X.X.X.X.X.X.X.X.X.X.X.o.X.X.X.2.n.g.g.g.h.k.g.g.",
"T.E.T.T.I.W.S.&.X.X.o.X.X.X.X.X.X.X.X.#.X.X.X.#.X.X.X.X.X.X.X.X.#.X.X.#.X.X.X.X.X.X.#.X.X.X.X.X.#.X.X.X.X.X.X.X.X.X.X.X.X.X.X.X.o.X.X.X.X.X.X.X.X.X.X.X.X.X.X.X.( X.X.2.h.h.g.g.h.g.g.g.",
"I.E.T.T.E.T.S.&.X.X.o.X.X.X.X.X.X.X.X.X.X.X.X.X.X.X.X.X.X.X.X.X.X.X.X.X.X.X.X.X.X.X.X.#.X.X.X.X.X.X.X.X.X.X.o.X.X.X.X.X.X.X.X.#.X.X.X.X.X.X.X.X.X.X.X.X.X.X.X.X.X.X.X.2.g.g.m.g.n.g.g.g.",
"I.E.T.T.I.W.S.&.X.X.o.( X.X.X.X.X.X.X.X.X.X.X.X.O.#.X.X.X.X.X.X.X.X.X.X.X.X.X.X.X.X.X.o.X.X.#.X.X.X.X.X.#.O.#.X.X.X.X.X.X.X.X.X.X.X.X.X.X.X.X.X.X.X.X.X.X.X.o.X.X.X.X.2.m.g.g.g.g.g.h.g.",
"T.T.T.T.E.E.S.&.X.X.o.( X.X.X.X.X.X.X.X.X.X.X.X.#.X.X.X.#.X.X.O.X.O.X.X.#.X.X.X.X.#.X.X.X.X.X.X.X.O.#.X.X.X.X.X.X.X.#.X.X.X.X.o.X.#.X.X.X.X.X.X.X.#.X.X.X.X.X.X.X.X.X.<.g.g.g.g.g.h.g.a.",
"I.T.T.T.E.E.S.;.X.#.o.X.X.X.X.X.X.X.X.X.X.#.X.X.X.X.X.X.X.X.X.#.X.#.X.X.X.X.X.X.X.X.X.X.X.X.X.X.X.X.X.X.X.X.X.X.X.X.O.X.X.X.X.#.X.X.X.X.X.X.X.X.X.X.o.X.X.X.o.X.X.X.X.<.g.g.g.g.g.d.m.g.",
"T.E.T.T.I.Y.S.%.X.X.o.X.X.X.X.X.X.X.X.X.X.X.X.X.X.X.X.X.X.X.X.o.X.X.X.X.X.X.X.X.X.X.O.X.X.X.X.#.X.X.X.o.X.X.X.X.#.X.X.X.X.X.X.X.X.X.X.X.X.X.X.#.X.X.#.X.X.X.o.X.X.X.X.<.g.g.g.d.g.h.g.v.",
"I.E.T.T.E.E.S.&.X.X.o.X.X.X.X.X.X.X.X.X.$.O.X.X.X.X.X.X.X.X.X.X.X.X.X.X.o.X.X.X.X.#.o.X.X.X.X.X.X.X.X.#.X.X.X.X.X.X.X.X.X.X.X.X.X.X.X.#.X.X.X.O.X.X.X.X.X.X.X.X.X.X.X.<.n.g.g.i.g.g.g.g.",
"E.E.T.T.I.W.S.&.X.X.o.X.X.X.X.X.X.X.X.#.X.X.X.X.X.X.X.O.X.X.X.X.X.X.X.X.#.#.X.X.X.X.X.#.X.X.X.X.X.X.X.X.X.X.$.X.X.X.X.X.#.X.X.X.#.X.X.o.X.X.X.X.X.X.X.#.X.X.o.X.X.X.X.2.m.g.g.g.g.g.g.v.",
"I.E.T.T.I.T.S.&.X.X.o.( o.X.X.X.X.X.X.X.X.#.X.X.X.X.X.$.X.X.X.#.X.X.X.X.X.O.X.X.X.X.X.X.X.X.X.X.X.X.X.X.X.X.X.X.X.#.X.X.X.X.X.X.O.X.X.X.X.X.X.X.X.X.X.O.X.X.o.X.X.X.X.2.g.g.g.g.g.d.g.n.",
"I.W.T.T.E.W.S.%.X.X.o.X.X.X.X.X.X.X.X.X.X.X.X.X.X.X.X.X.X.X.X.X.#.X.X.X.X.X.X.X.X.X.X.X.X.X.X.X.X.#.X.X.O.X.X.X.X.X.X.X.O.X.X.X.X.X.X.X.X.X.X.X.X.#.X.X.X.X.X.X.X.X.X.2.g.g.g.g.g.g.h.h.",
"I.T.T.T.E.T.S.#.X.X.X.X.X.X.X.X.X.X.X.X.X.X.X.X.X.X.X.X.X.X.X.X.X.X.X.X.X.#.X.X.X.X.X.X.#.X.X.X.X.X.X.X.#.X.X.X.#.o.X.X.#.X.X.X.X.X.X.X.#.X.X.X.X.X.X.X.X.X.o.X.X.X.X.2.g.g.g.g.g.d.h.d.",
"T.E.T.T.T.W.S.&.X.X.o.( X.X.X.X.X.X.X.X.X.X.X.X.O.$.X.X.X.X.#.X.X.X.X.X.X.X.X.X.X.X.X.#.X.X.X.X.X.X.X.X.X.X.X.X.X.X.X.X.O.X.#.X.X.X.X.X.X.X.X.#.X.X.X.X.X.X.o.X.X.X.X.2.g.h.g.g.g.a.h.d.",
"I.E.T.T.T.T.S.&.X.X.X.X.X.X.X.X.X.X.X.X.#.X.X.X.X.X.X.X.X.X.X.X.X.X.o.X.X.X.X.X.X.X.X.X.$.O.X.X.X.X.X.X.X.X.X.X.X.X.X.#.X.X.X.X.X.X.X.X.X.X.X.X.X.X.X.X.X.X.o.X.X.X.X.2.n.h.g.g.h.g.h.g.",
"T.E.T.T.I.W.S.&.o.X.X.X.X.X.X.X.o.#.X.X.X.X.X.X.X.X.X.#.X.X.X.X.X.X.#.O.X.X.X.X.X.X.X.X.X.X.X.#.#.X.X.X.#.X.O.#.X.X.X.X.X.X.X.X.X.X.X.X.X.X.X.X.X.X.X.X.X.X.o.X.X.X.X.2.g.h.g.g.g.g.h.f.",
"I.E.T.T.I.E.S.&.X.X.X.X.X.X.X.X.#.O.X.X.X.X.X.X.X.X.X.X.X.X.X.X.X.X.X.#.X.X.X.X.X.X.X.X.X.X.X.X.X.X.X.X.X.X.X.X.X.X.X.X.X.X.X.X.X.X.X.X.X.X.+.X.X.X.X.X.X.X.X.o.( X.X.2.g.g.d.g.g.g.h.g.",
"I.E.T.T.I.E.S.&.X.X.o.X.#.O.X.X.X.X.X.X.X.X.X.X.X.X.X.X.X.X.O.#.X.X.X.X.X.X.O.$.X.X.X.X.X.#.X.X.X.o.#.O.X.o.#.X.X.X.X.X.X.o.#.X.X.X.O.X.X.X.X.X.X.X.X.X.X.X.X.X.X.X.X.2.g.g.g.g.g.g.h.h.",
"T.T.T.Y.E.Y.S.&.X.X.o.( X.X.X.X.X.X.X.X.#.X.X.X.X.X.X.X.X.X.#.o.X.X.X.X.X.X.X.X.X.X.X.X.X.X.X.X.X.X.X.X.X.X.X.X.X.X.X.X.X.X.X.X.X.X.o.X.X.X.X.X.X.X.X.X.X.X.X.X.X.X.X.2.g.g.g.g.g.t.h.d.",
"I.E.T.T.I.E.S.&.X.X.o.X.X.X.X.X.X.#.X.X.#.o.O.#.X.X.X.#.X.X.X.X.X.X.#.X.X.X.#.X.o.#.X.X.X.X.X.X.X.X.#.X.X.X.X.X.X.X.#.X.X.X.#.X.X.X.X.X.X.X.X.X.X.X.X.X.X.X.X.o.X.X.X.<.n.h.g.g.g.a.h.h.",
"T.E.T.E.I.Y.F.&.X.X.+.X.X.X.X.X.X.X.X.X.X.X.X.X.X.X.X.X.X.X.X.X.X.X.X.X.X.X.X.X.#.O.X.X.X.X.X.X.X.X.X.X.X.X.X.#.X.X.O.X.X.X.X.X.X.X.X.X.X.X.X.X.X.X.X.X.X.X.o.X.X.X.X.<.h.g.g.g.h.g.h.d.",
"I.E.T.T.E.E.S.&.X.#.+.X.X.X.X.X.X.X.X.X.X.X.#.X.X.X.X.X.X.X.X.X.#.X.X.#.X.X.X.X.X.X.X.X.X.#.X.X.X.X.X.X.X.X.X.O.$.X.X.X.X.X.X.X.X.X.X.X.X.X.X.X.X.X.X.X.X.X.X.X.X.X.X.2.g.h.g.g.g.a.h.h.",
"I.E.T.T.I.Y.S.&.X.X.o.( X.X.X.X.X.X.#.X.X.X.O.X.X.X.X.X.X.X.X.X.X.X.X.+.X.X.X.X.X.X.X.X.X.O.X.#.X.X.X.X.X.X.X.X.X.X.X.X.#.X.X.X.X.X.#.X.X.X.#.o.X.X.X.X.X.X.o.X.X.X.X.2.g.g.g.g.g.d.h.g.",
"I.W.T.T.I.E.S.&.X.X.X.X.X.X.X.X.X.X.X.X.X.#.X.X.X.X.X.#.X.X.X.X.X.X.X.X.#.X.X.X.X.X.X.X.X.X.X.o.X.X.#.X.X.X.X.X.X.X.X.X.X.X.X.X.X.X.X.X.O.X.X.X.X.X.X.#.X.X.o.X.( X.X.2.g.h.g.g.h.d.h.h.",
"I.T.T.T.E.W.S.&.X.X.X.X.X.X.X.X.X.X.X.X.X.o.X.X.X.X.X.X.#.X.X.X.X.X.X.X.X.X.X.X.X.X.X.#.X.X.X.X.X.X.X.X.X.#.X.X.X.X.X.X.X.X.X.X.X.X.X.X.#.X.X.X.X.X.X.X.X.X.X.X.X.X.X.2.m.h.g.g.d.a.h.g.",
"I.E.T.T.T.T.S.&.X.X.+.%.X.X.X.X.X.X.O.X.X.X.X.X.X.X.X.o.#.O.X.X.X.X.X.X.X.X.#.X.#.X.X.X.X.X.X.X.X.X.O.X.X.X.X.X.X.X.X.X.X.X.X.X.X.X.X.X.X.X.X.X.X.X.X.X.#.X.o.X.X.X.X.2.g.h.g.g.h.g.g.g.",
"T.E.T.T.E.T.S.&.X.X.+.( X.X.X.X.X.X.#.X.X.X.X.X.X.X.X.X.X.X.X.X.X.X.X.X.X.X.X.X.X.X.X.X.X.X.X.X.X.X.#.o.X.X.X.X.X.X.X.X.#.X.X.X.X.X.#.X.X.X.X.X.X.X.X.X.X.X.X.o.X.X.X.2.n.h.g.g.g.d.h.h.",
"T.E.T.T.E.E.S.&.X.X.o.X.X.X.X.X.X.X.X.X.X.X.X.X.X.X.X.X.X.X.X.X.X.X.X.X.X.X.X.X.O.#.X.X.X.X.X.X.X.X.#.X.#.X.X.X.X.X.X.X.X.X.+.#.X.X.X.X.X.X.X.X.X.X.X.X.X.X.o.X.X.X.X.2.g.g.g.g.g.h.d.g.",
"I.E.T.T.E.Y.S.&.X.X.o.X.X.X.X.X.X.X.X.X.$.X.X.X.X.X.#.X.#.X.X.X.X.X.X.#.X.X.X.X.#.o.X.X.X.#.X.X.X.X.X.X.X.X.X.X.#.X.X.X.#.X.X.X.X.#.+.X.#.X.X.X.O.#.X.X.X.X.X.X.X.X.X.2.g.g.g.g.m.d.g.k.",
"I.E.T.T.I.E.S.&.X.X.o.X.X.X.X.X.o.#.X.X.X.X.X.#.X.X.X.X.$.X.X.X.X.X.#.X.X.X.X.X.X.X.X.#.X.X.X.X.X.X.X.X.X.X.X.X.X.X.X.X.X.X.X.X.X.o.#.#.X.X.X.#.X.X.X.X.X.X.o.X.X.X.X.<.g.h.g.g.n.g.g.g.",
"T.T.T.Y.I.W.S.&.X.X.X.X.X.X.X.X.X.X.X.X.O.X.X.X.X.X.X.X.X.X.X.X.X.X.o.X.X.X.X.#.X.#.X.o.X.X.X.X.X.X.X.X.X.X.X.X.X.X.X.X.o.#.X.X.X.X.O.X.X.X.X.X.X.X.X.X.X.X.X.o.X.X.X.2.n.g.g.g.g.h.g.k.",
"I.E.T.T.E.Y.S.&.( ( o.X.X.X.X.X.X.X.X.X.#.X.X.X.X.X.X.X.X.X.X.X.X.X.X.X.X.X.X.X.X.X.X.X.X.O.#.X.X.X.X.X.X.X.X.X.X.X.X.X.X.X.X.X.X.X.X.X.X.X.X.X.X.X.X.X.X.X.X.X.( X.X.<.g.g.g.t.g.g.g.g.",
"T.E.T.E.I.E.S.&.o.o.o.X.X.X.X.X.X.X.#.X.X.X.X.X.X.X.X.X.X.X.X.X.O.#.X.X.X.X.X.X.X.X.X.X.X.X.X.X.X.X.X.X.$.X.X.X.X.X.O.#.X.X.#.X.X.X.X.X.X.X.X.X.X.X.X.X.X.X.o.X.X.X.X.<.g.g.g.g.g.h.g.g.",
"I.E.T.T.I.W.S.&.X.X.o.( X.X.X.X.X.X.X.X.X.X.X.X.#.X.X.X.#.X.X.X.X.X.#.o.X.X.X.X.X.X.X.X.X.X.o.X.X.X.O.#.X.X.O.#.#.o.X.X.X.X.X.X.X.X.X.X.X.X.X.X.X.X.X.X.X.X.o.X.X.X.X.<.g.d.g.g.g.g.g.k.",
"I.E.T.T.I.Y.S.&.X.X.o.X.X.X.X.X.X.X.X.X.X.X.X.X.O.X.#.X.X.O.X.X.X.X.X.X.X.X.O.#.X.#.X.X.X.X.#.X.X.X.X.X.X.X.X.X.X.X.X.X.X.X.X.X.X.X.X.X.X.X.X.X.X.X.X.X.X.X.X.X.X.X.X.<.n.h.g.g.g.g.g.a.",
"I.T.T.T.T.E.S.&.X.X.o.X.X.X.X.X.X.X.O.X.#.X.o.#.X.X.X.X.X.X.#.X.X.X.X.X.#.X.X.X.O.X.X.#.X.X.X.X.X.X.X.X.X.#.X.X.X.X.X.#.X.X.X.X.X.X.X.X.o.X.X.X.X.X.X.X.X.X.X.X.X.X.X.,.g.g.h.g.g.g.h.d.",
"I.W.T.T.I.Y.S.#.X.X.X.X.X.X.X.#.X.X.#.X.X.X.X.X.X.X.X.X.X.X.X.X.X.X.X.X.X.X.X.X.X.X.X.X.X.X.X.X.X.#.X.X.X.X.X.X.X.X.X.X.X.X.#.O.X.X.X.X.X.X.X.X.X.X.X.X.X.X.X.X.X.X.#.2.g.g.h.g.a.g.h.g.",
"T.E.T.T.T.W.S.&.X.X.X.X.X.X.X.X.X.X.X.X.X.O.o.X.X.X.X.X.X.X.X.#.X.X.X.X.X.X.X.X.X.X.X.X.X.#.X.X.X.X.X.X.X.#.X.X.X.X.X.X.X.X.X.X.X.X.X.X.X.X.X.X.X.X.X.X.X.X.X.X.X.X.o.<.m.a.h.g.g.g.h.g.",
"I.E.T.T.T.T.S.&.X.X.X.X.X.X.X.X.X.X.X.X.X.X.X.X.X.X.X.X.X.X.X.X.#.o.X.X.#.X.X.X.X.X.X.X.X.X.O.X.#.X.X.X.X.X.X.X.X.X.#.X.X.X.X.#.X.X.X.X.X.X.X.X.X.X.X.#.X.X.o.X.X.X.X.<.n.g.g.g.g.d.g.g.",
"E.E.T.T.I.T.S.&.X.X.X.X.X.X.X.X.X.X.o.X.X.X.X.X.X.X.X.X.X.$.X.X.X.X.X.X.X.X.X.#.X.X.X.X.o.#.X.X.X.X.X.X.o.X.X.X.X.X.X.X.X.X.X.X.X.X.+.X.X.X.X.X.X.X.X.X.X.X.X.X.X.X.X.<.g.a.h.g.n.a.g.n.",
"I.E.T.T.I.W.S.&.o.X.o.X.X.X.X.X.X.X.X.X.X.X.X.X.#.X.X.X.X.X.O.X.X.X.X.X.X.X.X.O.X.X.#.X.X.X.X.X.X.X.X.X.#.X.X.X.X.X.X.X.X.X.X.X.X.X.#.#.X.X.X.#.X.X.X.X.X.X.X.X.X.X.O.<.g.g.h.s.g.g.g.g.",
"T.E.T.T.I.E.S.;.X.X.X._ X.X.X.X.X.X.X.X.X.X.X.X.X.X.X.X.X.X.X.X.X.X.X.#.X.X.X.X.X.o.X.X.X.X.X.X.X.X.X.X.O.X.X.X.X.X.X.$.X.X.X.X.X.X.X.X.X.X.X.X.X.X.X.X.X.X.X.X.X.X.X.<.g.v.h.h.g.g.g.n.",
"I.T.T.T.E.Y.S.&.X.X.o.X.X.X.X.X.X.X.X.X.X.X.X.X.X.X.X.X.X.X.X.X.O.X.X.X.X.X.#.X.X.#.X.#.X.X.X.X.X.X.X.X.#.X.X.X.X.X.X.O.X.X.X.X.X.X.X.X.X.X.X.X.X.X.X.X.X.X.o.X.X.X.X.,.m.y.g.g.g.g.g.g.",
"I.E.T.T.I.Q.S.-.X.X.o.X.o.X.#.$.X.( X.$.X.X.X.X.X.X.X.#.X.X.X.X.X.#.X.X.X.X.X.X.X.X.X.O.X.#.X.X.X.X.X.X.X.X.X.X.X.X.X.X.X.X.X.X.X.X.X.X.X.X.$.X.#.X.-.( ( #.o.o.X.#.X.<.a.g.g.g.g.g.h.g.",
"T.E.T.E.I.W.D.&.%.] X.( X.X.X.X.X.X.X.X.X.X.X.X.X.X.X.X.X.X.X.X.X.X.X.X.X.X.#.o.X.X.X.X.X.X.X.X.#.X.X.X.#.X.X.X.X.X.X.X.#.X.X.X.X.X.X.X.X.X.X.X.$.X.o.X.#.%.( #.%.%.X.<.g.g.g.g.g.a.h.g.",
"I.E.T.T.I.Y.D.%.X.X.o.X.=.o.+.] X.X.X.#.#.X.X.X.X.X.X.#.X.X.X.X.X.#.X.X.X.X.X.X.X.X.X.X.X.X.X.X.X.X.X.X.X.X.X.X.X.X.X.X.X.X.X.#.#.X.X.X.X.X.X.X.X.X.O.+.O.X.X.X.X.o.O.2.d.h.i.h.g.g.h.d.",
"T.E.T.T.I.T.F.;.-.@.o.X.( X.&.] X.o.X.o.] X.X.X.#.X.X.X.X.X.X.X.X.X.X.X.X.X.X.X.X.#.X.X.X.X.X.X.X.X.#.o.X.#.X.X.X.X.X.X.X.X.X.X.X.X.X.X.X.O.X.X.o.o.] o.#.$.o.-.+.+.+.,.y.g.g.d.g.a.h.g.",
"T.E.T.T.I.W.V.C A S S S Y S T F ^ o.X.X.X.X.X.X.O.X.X.X.X.X.X.X.X.X.X.X.X.O.#.X.X.X.X.X.X.X.X.#.X.X.O.X.X.X.X.X.X.X.#.X.X.X.X.X.X.X.X.X.X.X.X.+.o.X.F H H A A K A Z G } b.g.g.h.h.g.g.h.",
"T.T.T.T.I.!.q.& $ . X . $ o + o l _ #.o.$.X.#.X.o.#.X.X.#.X.X.X.X.X.X.X.X.X.X.X.X.X.#.o.X.X.X.X.X.X.#.X.X.X.X.X.X.X.X.X.X.X.X.X.X.X.X.X.X.@.o.O.( F & . X * + # X X $ M 6.g.a.h.d.g.h.d.",
"I.E.T.T.T.L.4.X # X @ O . $ * $ B o.#.o.#.X.X.X.X.X.X.X.X.X.X.O.X.#.X.X.X.X.X.X.X.#.X.X.X.X.X.X.X.X.X.X.X.#.X.X.X.X.#.X.X.X.X.#.$.X.X.X.X.X.o.X.&.H $ % . X O , X - X y d.g.g.h.g.g.h.d.",
"E.E.T.T.E.R.q.o $ $ X * . X < o z X.#.+.] X.X.X.X.X.X.X.X.X.#.X.X.X.X.X.X.X.X.X.X.O.X.X.X.#.X.X.X.X.X.X.X.X.X.X.o.X.O.X.X.X.X.X.X.X.X.#.X.] X.X.#.S X = @ X * $ $ < , w p.g.g.g.h.g.h.g.",
"T.E.T.T.E.W.8.o O . + + . o O $ j #.O.X.#.X.X.X.X.O.X.X.X.#.X.O.#.X.#.X.X.O.X.X.X.#.X.O.X.O.X.X.O.X.X.X.X.X.O.#.#.O.#.#.X.X.O.X.O.X.X.X.O.o.X.#.%.C $ . o X < * . o . m t.g.g.d.s.a.h.g.",
"I.E.T.T.I.T.l.. . .   X o   : + l X._ O.%.$.o.X.$.o.$.X.o.o.$.o.o.X.o.o.X.$.$.o.X.o.o.$.#.o.o.X.$.o.o.#.o.$.X.o.o.#.o.o.o.#.$.o.o.$.X.o.X.#.O.%.%.Y * O   X . . $ = X m i.g.g.g.g.g.h.d.",
"T.E.T.T.T.L.9.. . o   #   $ # $ B @.X.o.X.X.X.X.( X.X.( X.X.X.( X.( X.X.X.( X.X.( X.X.X.X.X.( X.X.X.( X.#.( X.X.X.X.( X.X.( X.X.X.X.X.( X.X.O.+.o.S $ # . . o O O X O c i.g.g.h.g.g.g.d.",
"T.T.T.T.I.T.9.& . . o ;   . @ O k o.o.X.X.X.O.X.X.O.X.X.X.O.O.#.O.X.O.X.#.#.X.X.O.O.O.X.O.X.O.X.X.O.X.X.X.O.X.O.X.X.X.X.O.X.X.X.X.X.X.X.X.X.X.+.o.A X @ X . & #     # n t.g.a.g.g.a.h.d.",
"I.E.T.T.I.I.9.. . .   # o o @ o j $.X.X.X.X.X.X.X.X.X.X.X.X.X.X.X.X.X.X.X.X.X.X.X.X.X.X.X.X.X.X.X.X.X.X.X.X.X.X.X.X.X.X.X.X.X.X.X.X.o.X.X.o.X.+.-.A . @ # . . O o . o w t.g.g.g.d.g.g.g.",
"T.E.T.T.I.W.z.. . & .   . $ $ % h I / ^ / ( ( / ( ( ( ( ( ( ( ( ( ( ( / ( ( ( ( ( ( ( ( ( ( ( / ( ( ( ( ( ( ( / ( ( ( ( ( ( ( / ( ( ( ( ( ^ / ( ) V % $ $ o     $ . . q a.g.n.g.d.a.h.g.",
"I.E.T.T.I.I.N   # . X   . O + O 3 8 9 8 8 6 6 6 6 6 6 6 6 6 6 6 6 6 6 6 6 6 6 6 6 6 6 6 6 6 6 6 6 6 6 6 6 6 6 6 6 6 6 6 6 6 6 6 6 6 6 6 6 8 8 8 0 6 O $ O     O o $ > 7 5.t.g.g.g.n.h.d.",
"T.E.T.T.I.x.5 # # .   o . X o O   . : . X                                                                                                 :   X X o : & @ . o X   . : . y ,.a.h.g.d.h.h.",
"E.I.T.P.c.2 1     +     # . . . . . + . O . . + . O . + . O . . . . + . O . . . . . O . . O . . . O .   . . O . . O .   . O . . . O .   . O . + . . . O + . . . . . + .   x u.f.a.m.3.m.",
"E.L.L.c.5 &     . o           .         .                                     .                     .       .       .         .     .               .                     & e >.g.a.h.f.",
"K.T.l.5 . . . . o o o . o . o . . o . o . o . o o . o . o o . o o . o o . o o . . o . o . o . o . . o o . o . o o . o o . . o . . . o o . o . o o . o o . $ o . . o o o . X $ y u.g.d.g.",
"T.c.4   # o X . .   .   .       .   .     .     .       .   .       .   .       .   .     .           . .   .     .   . .             .   . .   .             .   .       o O < q 6.h.i."
};
